<svg id="Capa_1" enable-background="new 0 0 366.49 366.49" height="512" viewBox="0 0 366.49 366.49" width="512" xmlns="http://www.w3.org/2000/svg"><g><g id="Layer_33"><g fill="#511115"><path d="m44.288 23.91c-12.442 0-22.528 10.342-22.528 23.04s10.086 23.04 22.528 23.04 22.528-10.342 22.528-23.04-10.086-23.04-22.528-23.04zm0 34.304c-5.939 0-10.752-5.069-10.752-11.264s4.813-11.264 10.752-11.264 10.752 5.069 10.752 11.264-4.813 11.264-10.752 11.264z"/><path d="m300.954 317.184c0 3.226-2.662 5.888-5.888 5.888h-20.378c-3.226 0-5.888-2.662-5.888-5.888 0-3.277 2.662-5.888 5.888-5.888h20.378c3.225 0 5.888 2.611 5.888 5.888z"/><path d="m326.963 338.329c0 3.226-2.662 5.888-5.888 5.888h-46.387c-3.226 0-5.888-2.662-5.888-5.888 0-3.277 2.662-5.888 5.888-5.888h46.387c3.226 0 5.888 2.612 5.888 5.888z"/><path d="m366.131 257.28-7.526-19.814c-.87-2.304-3.072-3.789-5.478-3.789h-48.282c7.117-18.534 10.547-38.554 10.086-58.47-.102-9.267-1.075-18.534-2.918-27.597-9.779-48.282-43.264-89.242-89.549-109.517-43.725-19.2-93.286-17.459-134.195 4.352-3.175-23.962-20.685-40.653-43.879-40.653-25.702 0-44.39 20.48-44.39 48.589 0 16.128 13.005 39.936 24.115 57.395-.358.41-.666.87-.922 1.382-17.51 34.867-21.094 76.288-9.882 113.562 13.926 46.285 50.893 83.61 98.816 99.789 16.845 5.734 34.253 8.55 51.405 8.55 29.338 0 57.907-8.192 82.227-24.064v51.814c0 3.226 2.662 5.888 5.888 5.888h108.954c3.277 0 5.888-2.662 5.888-5.888v-99.431c.001-.716-.102-1.433-.358-2.098zm-53.299-11.827h36.198l5.274 13.875h-41.472zm-301.056-195.072c0-21.299 13.722-36.813 32.614-36.813s32.614 15.514 32.614 36.813c0 17.101-20.531 49.408-32.614 66.406-12.134-16.998-32.614-49.254-32.614-66.406zm19.763 68.608c4.455 6.451 7.68 10.701 8.141 11.315 1.126 1.434 2.867 2.304 4.71 2.304s3.533-.87 4.659-2.304c1.536-1.997 35.021-46.131 39.322-74.394 13.824-8.243 28.877-13.824 44.442-16.794 1.024 2.714 1.792 6.195 1.741 6.861l-7.885 13.466c-3.789 6.502-4.915 14.336-3.123 22.067l2.867 12.544c.973 4.045 3.891 7.578 7.834 9.421.461.256.666.563.819.461-2.355 3.84-7.066 5.99-12.339 5.683l-12.954-.819c-6.246-.307-11.622 4.045-12.083 10.086-.256 2.714-2.253 4.762-5.274 5.274l-14.541 2.509c-6.144 1.075-11.622 3.891-15.718 8.141l-5.12 5.274-2.458 11.213-30.362 18.176-4.915 7.526c-.205.358-.41.666-.614.973.102-20.276 4.403-40.5 12.851-58.983zm107.367 198.195c-7.731-1.28-15.462-3.226-23.04-5.786-44.288-15.002-78.438-49.408-91.238-92.058-2.714-9.011-4.506-18.278-5.325-27.648 5.12-.41 7.168-3.277 8.755-6.298.307-.563.614-1.229 1.075-1.946l3.482-5.222 32.358-19.405 2.867-12.954 2.765-2.867c2.355-2.458 5.581-4.096 9.318-4.71l14.49-2.509c8.09-1.434 13.978-7.475 14.899-15.206l12.646.768c9.83.614 18.79-3.84 23.296-11.571 1.587-2.714 1.946-5.888 1.024-9.011-1.075-3.43-3.635-6.298-7.014-7.885-.768-.41-1.229-1.075-1.331-1.485l-2.918-12.493c-1.126-4.813-.461-9.626 1.843-13.517l7.834-13.414c2.509-4.25 1.28-10.445 0-14.592 24.371-2.56 49.613 1.229 73.062 11.52 42.752 18.739 73.677 56.525 82.688 101.018 1.075 5.274 1.843 10.65 2.253 15.974-6.912-3.021-14.848-4.25-20.89-3.277-3.43.512-6.4 2.458-8.397 5.478-2.253 3.379-2.97 7.629-1.946 11.776.307 1.331.102 2.714-.614 3.635l-9.677 12.544c-3.942 5.069-9.318 8.397-15.206 9.318l-18.995 3.021c-4.915.768-11.008 6.963-18.176 18.381-6.4 2.97-13.466 4.045-20.48 3.174l-2.765-.358-1.997 1.894c-1.178 1.075-2.56 1.638-3.994 1.587-1.69-.051-3.379-.922-4.71-2.355l-19.456-20.839c-3.328-3.584-8.038-5.12-12.544-4.198-4.608 1.024-8.346 4.403-9.984 9.216l-1.229 3.533 17.51 31.539c5.376 9.626 6.195 21.76 2.15 31.642l-9.728 24.064c-1.535 3.637-2.405 7.528-2.661 11.522zm114.944-79.77-7.68 19.815c-.256.717-.41 1.434-.41 2.15v33.536c-.41.154-.87.358-1.229.666-26.829 19.456-60.262 28.109-93.901 25.088.102-3.021.717-5.939 1.843-8.602l9.728-24.013c5.427-13.363 4.403-28.979-2.714-41.83l-14.848-26.675c.205-.154.41-.307.614-.358.666-.102 1.229.41 1.536.717l19.456 20.838c3.482 3.738 8.09 5.888 12.902 6.093 3.635.102 7.168-.922 10.189-2.97 9.114.717 18.125-1.126 26.317-5.376l1.434-.768.87-1.382c3.891-6.451 9.165-13.107 11.213-14.387l18.637-2.918c8.806-1.434 16.896-6.298 22.682-13.824l9.677-12.544c2.918-3.738 3.942-8.806 2.714-13.67-.256-1.024 0-1.946.307-2.406.051-.051.256-.358.461-.358 5.632-.87 14.592 1.382 19.558 5.581-.154 18.535-3.891 36.915-11.11 53.862h-32.768c-2.406-.003-4.608 1.482-5.478 3.735zm47.206 8.039v13.875h-43.059l5.376-13.875zm53.658 107.468h-97.178v-81.818h43.52v13.926c0 3.226 2.611 5.837 5.888 5.837 3.226 0 5.888-2.611 5.888-5.837v-13.926h41.882z"/></g><path d="m302.694 165.888c-6.912-3.021-14.848-4.25-20.89-3.277-3.43.512-6.4 2.458-8.397 5.478-2.253 3.379-2.97 7.629-1.946 11.776.307 1.331.102 2.714-.614 3.635l-9.677 12.544c-3.942 5.069-9.318 8.397-15.206 9.318l-18.995 3.021c-4.915.768-11.008 6.963-18.176 18.381-6.4 2.97-13.466 4.045-20.48 3.174l-2.765-.358-1.997 1.894c-1.178 1.075-2.56 1.638-3.994 1.587-1.69-.051-3.379-.922-4.71-2.355l-19.456-20.838c-3.328-3.584-8.038-5.12-12.544-4.198-4.608 1.024-8.346 4.403-9.984 9.216l-1.229 3.533 17.51 31.539c5.376 9.626 6.195 21.76 2.15 31.642l-9.728 24.064c-1.536 3.635-2.406 7.526-2.662 11.52-7.731-1.28-15.462-3.226-23.04-5.786-44.288-15.002-78.438-49.408-91.238-92.058-2.714-9.011-4.506-18.278-5.325-27.648 5.12-.41 7.168-3.277 8.755-6.298.307-.563.614-1.229 1.075-1.946l3.482-5.222 32.358-19.405 2.867-12.954 2.765-2.867c2.355-2.458 5.581-4.096 9.318-4.71l14.49-2.509c8.09-1.434 13.978-7.475 14.899-15.206l12.646.768c9.83.614 18.79-3.84 23.296-11.571 1.587-2.714 1.946-5.888 1.024-9.011-1.075-3.43-3.635-6.298-7.014-7.885-.768-.41-1.229-1.075-1.331-1.485l-2.918-12.493c-1.126-4.813-.461-9.626 1.843-13.517l7.834-13.414c2.509-4.25 1.28-10.445 0-14.592 24.371-2.56 49.613 1.229 73.062 11.52 42.752 18.739 73.677 56.525 82.688 101.018 1.077 5.274 1.845 10.65 2.254 15.975z" fill="#99e7dc"/><path d="m135.066 103.936c-2.355 3.84-7.066 5.99-12.339 5.683l-12.954-.819c-6.246-.307-11.622 4.045-12.083 10.086-.256 2.714-2.253 4.762-5.274 5.274l-14.541 2.509c-6.144 1.075-11.622 3.891-15.718 8.141l-5.12 5.274-2.458 11.213-30.362 18.176-4.915 7.526c-.205.358-.41.666-.614.973.102-20.275 4.403-40.499 12.851-58.982 4.455 6.451 7.68 10.701 8.141 11.315 1.126 1.434 2.867 2.304 4.71 2.304s3.533-.87 4.659-2.304c1.536-1.997 35.021-46.131 39.322-74.394 13.824-8.243 28.877-13.824 44.442-16.794 1.024 2.714 1.792 6.195 1.741 6.861l-7.885 13.466c-3.789 6.502-4.915 14.336-3.123 22.067l2.867 12.544c.973 4.045 3.891 7.578 7.834 9.421.46.255.665.562.819.46z" fill="#61c46e"/><path d="m303.206 179.814c-.154 18.535-3.891 36.915-11.11 53.862h-32.768c-2.406 0-4.608 1.485-5.478 3.738l-7.68 19.815c-.256.717-.41 1.434-.41 2.15v33.536c-.41.154-.87.358-1.229.666-26.829 19.456-60.262 28.109-93.901 25.088.102-3.021.717-5.939 1.843-8.602l9.728-24.013c5.427-13.363 4.403-28.979-2.714-41.83l-14.848-26.675c.205-.154.41-.307.614-.358.666-.102 1.229.41 1.536.717l19.456 20.838c3.482 3.738 8.09 5.888 12.902 6.093 3.635.102 7.168-.922 10.189-2.97 9.114.717 18.125-1.126 26.317-5.376l1.434-.768.87-1.382c3.891-6.451 9.165-13.107 11.213-14.387l18.637-2.918c8.806-1.434 16.896-6.298 22.682-13.824l9.677-12.544c2.918-3.738 3.942-8.806 2.714-13.67-.256-1.024 0-1.946.307-2.406.051-.051.256-.358.461-.358 5.632-.873 14.592 1.38 19.558 5.578z" fill="#61c46e"/><path d="m44.39 13.568c-18.893 0-32.614 15.514-32.614 36.813 0 17.152 20.48 49.408 32.614 66.406 12.083-16.998 32.614-49.305 32.614-66.406.001-21.3-13.721-36.813-32.614-36.813zm-.102 56.422c-12.442 0-22.528-10.342-22.528-23.04s10.086-23.04 22.528-23.04 22.528 10.342 22.528 23.04-10.086 23.04-22.528 23.04z" fill="#dd2e39"/><path d="m301.056 245.453v13.875h-43.059l5.376-13.875z" fill="#e3c97e"/><path d="m354.304 259.328h-41.472v-13.875h36.198z" fill="#e3c97e"/><path d="m312.832 271.104v13.926c0 3.226-2.662 5.837-5.888 5.837-3.277 0-5.888-2.611-5.888-5.837v-13.926h-43.52v81.818h97.178v-81.818zm-38.144 40.192h20.378c3.226 0 5.888 2.611 5.888 5.888 0 3.226-2.662 5.888-5.888 5.888h-20.378c-3.226 0-5.888-2.662-5.888-5.888 0-3.277 2.662-5.888 5.888-5.888zm46.387 32.921h-46.387c-3.226 0-5.888-2.662-5.888-5.888 0-3.277 2.662-5.888 5.888-5.888h46.387c3.226 0 5.888 2.611 5.888 5.888 0 3.226-2.662 5.888-5.888 5.888z" fill="#e3c97e"/></g></g></svg>