<?xml version="1.0" encoding="iso-8859-1"?>
<!-- Generator: Adobe Illustrator 19.0.0, SVG Export Plug-In . SVG Version: 6.00 Build 0)  -->
<svg version="1.1" id="Capa_1" xmlns="http://www.w3.org/2000/svg" xmlns:xlink="http://www.w3.org/1999/xlink" x="0px" y="0px"
	 viewBox="0 0 512.001 512.001" style="enable-background:new 0 0 512.001 512.001;" xml:space="preserve">
<circle style="fill:#00C3FF;" cx="200.352" cy="255.956" r="192.852"/>
<path style="fill:#00AAF0;" d="M35.015,255.957c0-101.881,79.008-185.3,179.094-192.354c-4.543-0.32-9.128-0.494-13.753-0.494
	C93.85,63.109,7.508,149.451,7.508,255.957c0,111.29,94.221,200.277,206.602,192.355C114.023,441.257,35.015,357.838,35.015,255.957
	z"/>
<path style="fill:#E59F23;" d="M504.507,172.341c-0.042-4.372-3.737-7.834-8.109-7.834H251.615c-4.372,0-8.067,3.463-8.109,7.834
	c0,0.031-0.001,0.063-0.001,0.094v165.168c0,5.414,4.389,9.805,9.805,9.805h241.393c5.414,0,9.805-4.389,9.805-9.805V172.435
	C504.507,172.404,504.507,172.373,504.507,172.341z"/>
<path style="fill:#D38B18;" d="M266.998,337.604V172.435c0-0.031,0-0.063,0.001-0.094c0.042-4.372,3.737-7.834,8.109-7.834h-23.493
	c-4.372,0-8.067,3.463-8.109,7.834c0,0.031-0.001,0.063-0.001,0.094v165.168c0,5.415,4.389,9.805,9.805,9.805h23.492
	C271.387,347.408,266.998,343.018,266.998,337.604z"/>
<path style="fill:#FFC850;" d="M378.674,266.018c-2.771,2.061-6.565,2.061-9.337,0l-9.325-6.934l-106.703,88.325h241.394
	L388,259.083L378.674,266.018z"/>
<g>
	<path style="fill:#F9B428;" d="M266.998,337.604v-1.526l-13.688,11.331h23.492C271.387,347.408,266.998,343.018,266.998,337.604z"
		/>
	<path style="fill:#F9B428;" d="M243.507,172.436l-0.001-0.001v165.168c0,5.414,4.389,9.805,9.804,9.805l106.703-88.325
		L243.507,172.436z"/>
</g>
<path style="fill:#E59F23;" d="M243.507,172.436l-0.001-0.001v165.168c0,1.529,0.36,2.971,0.984,4.26
	c1.587,3.277,4.934,5.543,8.82,5.543l0,0l13.688-11.331V189.907L243.507,172.436z"/>
<path style="fill:#F9B428;" d="M388,259.082l106.703,88.325c5.414,0,9.804-4.389,9.804-9.805V172.435l0,0L388,259.082z"/>
<path d="M496.389,157.049H375.422C339.571,93.846,272.874,55.26,200.741,55.26l0,0l0,0h-0.001
	C89.707,55.26,0.136,145.301,0.003,255.756c0,0.082-0.003,0.163-0.003,0.245C0,367.467,90.437,456.684,200.683,456.74
	c0.019,0,0.038,0.001,0.057,0.001c0.007,0,0.014-0.001,0.021-0.001c0.004,0,0.007,0,0.011,0c29.076,0,58.651-6.303,86.385-19.523
	c35.112-16.523,67.1-44.956,88.265-82.265h0.386c4.143,0,7.5-3.357,7.5-7.5s-3.357-7.5-7.5-7.5c-10.541,0-90.993,0-101.682,0
	l86.127-71.293l4.602,3.421c4.09,3.043,9.25,3.818,13.89,2.289c0.258,0,2.558-0.92,4.397-2.288l4.601-3.422l86.128,71.293h-63.062
	c-4.143,0-7.5,3.357-7.5,7.5s3.357,7.5,7.5,7.5h83.885c9.542,0,17.305-7.763,17.305-17.305v-59.774c0-4.143-3.357-7.5-7.5-7.5
	s-7.5,3.357-7.5,7.5v59.774c0,0.576-0.22,1.098-0.571,1.502l-96.292-79.707L497,187.405v55.467c0,4.143,3.357,7.5,7.5,7.5
	s7.5-3.357,7.5-7.5v-70.393c0-0.024,0-0.143,0-0.167C511.919,163.896,504.917,157.049,496.389,157.049z M251.569,339.149
	c-0.386-0.446-0.571-1.013-0.571-1.502l0.001-150.242c1.08,0.803,94.382,70.191,96.862,72.036
	C346.126,260.878,253.14,337.848,251.569,339.149z M15.165,263.501h80.619c0.437,23.204,2.895,45.727,7.212,66.778
	c-20.022,7.028-39.299,16.239-57.52,27.539C27.511,330.517,16.552,298.222,15.165,263.501z M44.646,155.441
	c18.366,11.475,37.81,20.819,58.014,27.94c-4.27,21.383-6.464,43.23-6.875,65.119H15.165
	C16.431,216.529,25.978,184.32,44.646,155.441z M235.997,248.5h-27.757v-48.504c9.283-0.234,18.567-0.903,27.757-1.997V248.5z
	 M120.649,340.316c23.434-6.983,47.811-10.878,72.591-11.534v112.285C154.289,434.194,130.372,378.923,120.649,340.316z
	 M117.351,325.648c-3.907-19.587-6.143-40.533-6.563-62.148h82.453v50.278C167.344,314.429,141.865,318.437,117.351,325.648z
	 M110.787,248.5c0.42-21.632,2.621-41.867,6.227-60.47c24.612,7.272,50.205,11.314,76.227,11.967V248.5H110.787z M153.187,76.441
	c-24.113,23.084-39.126,59.764-47.222,92.2c-18.311-6.585-35.954-15.099-52.661-25.467
	C77.978,111.007,112.918,87.115,153.187,76.441z M193.241,184.992c-24.931-0.659-49.442-4.594-72.998-11.653
	c9.595-39.061,33.613-95.474,72.998-102.406V184.992z M106.37,344.99c8.116,31.774,23.031,67.795,46.818,90.569
	c-39.767-10.541-74.341-33.968-98.961-65.529C70.782,359.846,88.251,351.474,106.37,344.99z M208.242,263.501h27.757v52.273
	c-9.186-1.093-18.47-1.761-27.757-1.995V263.501z M235.997,172.312c0,0.024,0,0.143,0,0.167V182.9
	c-9.179,1.152-18.469,1.848-27.757,2.095V70.959c34.997,6.285,57.799,51.817,68.446,86.09h-25.08
	C243.081,157.049,236.078,163.896,235.997,172.312z M292.352,157.049c-8.392-28.648-22.543-60.025-44.137-80.633
	c35.238,9.3,66.803,28.706,91.191,56.024l0,0c2.565,2.892,6.095,7.104,8.828,10.696c-8.146,5.052-16.6,9.715-25.232,13.912
	L292.352,157.049L292.352,157.049z M356.876,155.414c0.353,0.546,0.721,1.086,1.067,1.635h-3.703
	C355.124,156.51,355.999,155.962,356.876,155.414z M356.061,357.855c-1.584-0.982-3.179-1.949-4.785-2.903h6.678
	C357.338,355.931,356.695,356.889,356.061,357.855z M347.31,370.069c-24.949,32.078-59.763,55.134-99.095,65.514
	c21.592-20.606,35.744-51.986,44.135-80.631h26.928C328.891,359.452,338.286,364.519,347.31,370.069z M208.242,441.04V328.78
	c9.292,0.246,18.583,0.942,27.757,2.093v6.772c0,9.414,7.696,17.305,17.305,17.305h0.001c0.01,0,0.021,0,0.031,0h23.351
	C266.063,389.149,243.235,434.757,208.242,441.04z M374.191,260.042c-0.117,0.084-0.271,0.084-0.384-0.001
	c-3.232-2.404-111.117-82.638-118.315-87.991c24.054,0,211.718,0,237.015,0C487.237,175.97,375.197,259.294,374.191,260.042z"/>
<g>
</g>
<g>
</g>
<g>
</g>
<g>
</g>
<g>
</g>
<g>
</g>
<g>
</g>
<g>
</g>
<g>
</g>
<g>
</g>
<g>
</g>
<g>
</g>
<g>
</g>
<g>
</g>
<g>
</g>
</svg>
